<svg xmlns="http://www.w3.org/2000/svg" viewBox="0 0 1200 630" width="1200" height="630">
  <defs>
    <linearGradient id="shieldGrad" x1="0" y1="0" x2="0" y2="1">
      <stop offset="0%" stop-color="#00ff88"/>
      <stop offset="100%" stop-color="#00cc6a"/>
    </linearGradient>
    <pattern id="gridPattern" width="40" height="40" patternUnits="userSpaceOnUse">
      <path d="M 40 0 L 0 0 0 40" fill="none" stroke="#0a0a0a" stroke-width="0.5"/>
    </pattern>
    <pattern id="circuitPattern" width="120" height="120" patternUnits="userSpaceOnUse">
      <path d="M 0 60 L 30 60 L 40 40 L 50 60 L 80 60" fill="none" stroke="#0a0a0a" stroke-width="0.8"/>
      <path d="M 60 0 L 60 30 L 80 40 L 60 50 L 60 80" fill="none" stroke="#0a0a0a" stroke-width="0.8"/>
      <circle cx="30" cy="60" r="2" fill="#0a0a0a"/>
      <circle cx="80" cy="60" r="2" fill="#0a0a0a"/>
      <circle cx="60" cy="30" r="2" fill="#0a0a0a"/>
      <circle cx="60" cy="80" r="2" fill="#0a0a0a"/>
      <circle cx="40" cy="40" r="1.5" fill="#111"/>
      <circle cx="80" cy="40" r="1.5" fill="#111"/>
    </pattern>
    <!-- Glow filter for the shield -->
    <filter id="shieldGlow" x="-30%" y="-30%" width="160%" height="160%">
      <feGaussianBlur in="SourceGraphic" stdDeviation="8" result="blur"/>
      <feColorMatrix in="blur" type="matrix" values="0 0 0 0 0  0 0 0 0 1  0 0 0 0 0.53  0 0 0 0.3 0" result="glow"/>
      <feMerge>
        <feMergeNode in="glow"/>
        <feMergeNode in="SourceGraphic"/>
      </feMerge>
    </filter>
    <!-- Subtle text glow for PROOFI -->
    <filter id="textGlow" x="-20%" y="-20%" width="140%" height="140%">
      <feGaussianBlur in="SourceGraphic" stdDeviation="4" result="blur"/>
      <feColorMatrix in="blur" type="matrix" values="0 0 0 0 0  0 0 0 0 0.9  0 0 0 0 1  0 0 0 0.4 0" result="glow"/>
      <feMerge>
        <feMergeNode in="glow"/>
        <feMergeNode in="SourceGraphic"/>
      </feMerge>
    </filter>
  </defs>

  <!-- Black background -->
  <rect width="1200" height="630" fill="#000000"/>

  <!-- Grid pattern overlay -->
  <rect width="1200" height="630" fill="url(#gridPattern)"/>

  <!-- Circuit pattern overlay -->
  <rect width="1200" height="630" fill="url(#circuitPattern)" opacity="0.6"/>

  <!-- Subtle radial gradient vignette -->
  <radialGradient id="vignette" cx="50%" cy="42%" r="60%">
    <stop offset="0%" stop-color="#0d1117" stop-opacity="0.3"/>
    <stop offset="100%" stop-color="#000000" stop-opacity="0.9"/>
  </radialGradient>
  <rect width="1200" height="630" fill="url(#vignette)"/>

  <!-- Horizontal accent line, top -->
  <line x1="300" y1="60" x2="900" y2="60" stroke="#00ff88" stroke-width="0.5" opacity="0.15"/>

  <!-- Shield logo centered, positioned in upper-center area -->
  <g transform="translate(600, 210) scale(0.42)" filter="url(#shieldGlow)">
    <!-- Shield shape -->
    <path d="M0 -184 L144 -120 L144 24 Q144 124 0 192 Q-144 124 -144 24 L-144 -120 Z" fill="url(#shieldGrad)"/>
    <!-- Inner shield cutout for depth -->
    <path d="M0 -156 L124 -100 L124 20 Q124 108 0 168 Q-124 108 -124 20 L-124 -100 Z" fill="#000" opacity="0.85"/>
    <!-- Letter P -->
    <text x="0" y="54" font-family="Arial, Helvetica, sans-serif" font-size="220" font-weight="bold" fill="#00ff88" text-anchor="middle" dominant-baseline="central">P</text>
  </g>

  <!-- PROOFI text - Orbitron-style -->
  <text x="600" y="400" font-family="'Orbitron', 'Rajdhani', 'Audiowide', 'Share Tech', 'Courier New', monospace" font-size="72" font-weight="700" fill="#00E5FF" text-anchor="middle" letter-spacing="16" filter="url(#textGlow)">PROOFI</text>

  <!-- Tagline -->
  <text x="600" y="455" font-family="'Inter', 'Segoe UI', Arial, sans-serif" font-size="22" fill="#ffffff" text-anchor="middle" letter-spacing="3" opacity="0.85">Own Your Proof. Trust the Math.</text>

  <!-- Horizontal accent line -->
  <line x1="440" y1="480" x2="760" y2="480" stroke="#00ff88" stroke-width="0.5" opacity="0.2"/>

  <!-- Bottom URL -->
  <text x="600" y="560" font-family="'Inter', 'Segoe UI', Arial, sans-serif" font-size="16" fill="#00E5FF" text-anchor="middle" letter-spacing="4" opacity="0.5">proofi.ai</text>

  <!-- Corner accents (subtle tech-frame feel) -->
  <!-- Top-left -->
  <path d="M 30 30 L 30 70 M 30 30 L 70 30" stroke="#00ff88" stroke-width="1" opacity="0.12" fill="none"/>
  <!-- Top-right -->
  <path d="M 1170 30 L 1170 70 M 1170 30 L 1130 30" stroke="#00ff88" stroke-width="1" opacity="0.12" fill="none"/>
  <!-- Bottom-left -->
  <path d="M 30 600 L 30 560 M 30 600 L 70 600" stroke="#00ff88" stroke-width="1" opacity="0.12" fill="none"/>
  <!-- Bottom-right -->
  <path d="M 1170 600 L 1170 560 M 1170 600 L 1130 600" stroke="#00ff88" stroke-width="1" opacity="0.12" fill="none"/>

  <!-- Horizontal accent line, bottom -->
  <line x1="300" y1="590" x2="900" y2="590" stroke="#00ff88" stroke-width="0.5" opacity="0.15"/>
</svg>
